<svg width="322" height="529" viewBox="0 0 322 529" fill="none" xmlns="http://www.w3.org/2000/svg">
<path d="M117.696 232.475L176.015 257.494C176.015 257.494 202.148 250.786 204.512 253.842C206.878 256.897 200.315 259.618 194.907 260.799C194.907 260.799 214.668 275.757 215.937 278.73C217.209 281.702 211.776 284.629 207.49 281.871C207.49 281.871 195.384 289.423 190.808 287.95C181.709 286.33 178.528 282.312 170.992 273.012C170.992 273.012 100.473 258.122 93.6514 249.415" fill="#E5B7AC"/>
<path d="M93.081 247.847C88.8689 240.423 84.4298 182.342 85.1638 158.033C85.3666 151.28 89.7766 143.506 97.8826 143.204C107.584 142.573 109.789 150.026 111.665 158.558L119.37 234.654" fill="#E5B7AC"/>
<path d="M65.7776 527.788L66.612 441.774C69.9707 437.861 72.3935 433.26 73.3695 428.199C76.1217 413.926 79.375 399.214 78.3799 384.617C77.8106 376.25 75.0453 368.596 70.4647 362.476C72.3614 353.375 74.2591 344.271 76.0133 335.142C78.5888 321.753 79.9092 308.163 83.4165 294.957C84.6394 290.354 84.9316 285.795 84.4386 281.427L93.4403 303.963L93.7506 308.453L102.882 439.124L89.7422 555.427L87.0573 579.347C77.419 580.405 74.9329 578.974 65.2705 579.369L65.5135 555.426L65.7776 527.788Z" fill="#E5B7AC"/>
<path d="M7.97015 536.947L8.80556 450.933C12.1632 447.019 14.5851 442.42 15.5631 437.359C18.3153 423.086 21.5676 408.374 20.5735 393.776C20.0032 385.409 17.2369 377.755 12.6573 371.635C14.553 362.535 16.4517 353.43 18.2059 344.301C20.7814 330.913 22.1027 317.323 25.609 304.118C26.832 299.515 27.1252 294.956 26.6322 290.589L35.6319 313.124L35.9411 317.613L45.0723 448.285L31.9338 564.587L29.2509 588.508C19.6116 589.565 17.1255 588.135 7.46509 588.531L7.70608 564.586L7.97015 536.947Z" fill="#E5B7AC"/>
<path d="M112.158 321.955L112.056 324.202L111.798 329.549L100.917 562.902L62.375 564.738L65.803 370.85L38.8301 569.588L3.73303 567.752L4.59053 541.278L10.7406 352.632L12.2678 307.067L12.9185 287.889L112.158 321.955Z" fill="#7D5228"/>
<path opacity="0.4" d="M65.7878 371.676L84.0763 363.084L73.8737 380.65L62.3749 564.737L65.7878 371.676Z" fill="#BBBCBF"/>
<path opacity="0.4" d="M117.282 325.093C117.282 325.093 115.568 326.978 111.797 329.549C102.237 336.13 68.0301 345.589 26.2669 342.522L4.5896 541.277L10.7407 352.631L12.2669 307.065L112.056 324.201L117.282 325.093Z" fill="#B6B6B6"/>
<path d="M118.597 319.099C117.762 319.898 116.838 320.625 115.808 321.32C99.2724 332.561 60.3237 330.822 60.3237 330.822C60.3237 330.822 37.9476 328.868 19.6721 322.934C11.9617 320.449 4.98322 317.234 0.719849 313.186L20.0968 250.135L9.31688 196.322L1.12951 155.469C1.12951 155.469 5.31959 137.408 35.4423 127.337C42.1366 125.084 50.1302 123.236 59.6319 122.082C73.4854 125.386 83.6618 130.234 90.2326 134.157C96.2883 137.729 103.143 143.929 103.143 143.929C110.284 158.082 114.015 167.462 114.937 174.812C115.808 181.596 114.315 186.694 110.924 192.273C108.526 196.215 105.188 200.407 101.05 205.59L118.597 319.099Z" fill="#D68B33"/>
<path opacity="0.4" d="M115.807 321.321C99.2715 332.561 60.3228 330.822 60.3228 330.822C60.3228 330.822 37.9466 328.868 19.6711 322.934C11.9607 320.449 4.98225 317.234 0.718872 313.186L20.0958 250.135L9.3159 196.322L26.6315 156.023C26.6315 156.023 46.5416 301.408 115.807 321.321Z" fill="#BBBCBF"/>
<path d="M79.1957 161.927C55.9479 163.028 39.7389 136.043 35.4424 127.338C42.1367 125.085 50.1302 123.238 59.632 122.083C73.4854 125.387 83.6619 130.235 90.2327 134.158C93.9267 147.518 94.984 161.161 79.1957 161.927Z" fill="#F2C9AD"/>
<path d="M97.7941 42.643C97.7941 42.643 108.758 54.927 104.115 72.827C99.0502 89.6716 101.723 94.1017 106.812 103.461C111.902 112.818 109.158 131.861 86.2681 130.586C64.2313 129.354 69.9436 105.671 69.9436 105.671L74.4821 42.3438L97.7941 42.643Z" fill="#563B29"/>
<path d="M34.6497 121.689C34.6497 121.689 58.2689 145.346 70.7086 144.235C78.4461 143.549 78.3176 128.075 78.3176 128.075L77.427 117.488L76.1317 101.94L75.4831 94.1084L57.8432 98.5515L38.8156 78.803L38.1118 86.8538L37.1107 98.4229L36.6307 102.976L34.6497 121.689Z" fill="#F2C9AD"/>
<path opacity="0.4" d="M36.6307 102.977C48.0804 117.906 70.4907 127.356 77.8758 122.839L76.1317 101.939L58.2689 104.717L38.1108 86.8528L37.1097 98.4219L36.6307 102.977Z" fill="#CA7E86"/>
<path d="M41.2647 78.8642C41.2647 78.8642 34.5955 65.5419 25.9001 69.3987C17.2036 73.2544 28.5368 95.3595 41.9143 89.6201L41.2647 78.8642Z" fill="#F2C9AD"/>
<path d="M29.062 75.5118C35.4158 75.0408 39.4061 80.5362 39.5718 80.7722C39.7425 81.0132 39.6863 81.3435 39.4473 81.5152C39.3619 81.5755 39.2665 81.6066 39.1712 81.6126C38.9944 81.6216 38.8147 81.5464 38.7043 81.3897C38.6812 81.3556 37.1911 79.3062 34.6738 77.8854C32.5703 79.4478 33.9188 83.0866 33.9338 83.1278C34.0362 83.3999 33.9027 83.7071 33.6286 83.8146C33.5764 83.8347 33.5221 83.8457 33.4679 83.8497C33.244 83.8648 33.0251 83.7333 32.9418 83.5124C32.8715 83.3346 31.4517 79.506 33.6406 77.3753C32.3805 76.8211 30.9256 76.4636 29.308 76.561C29.2537 76.567 29.1985 76.5711 29.1433 76.5741C28.8862 76.6353 28.5961 76.3793 28.572 76.0881C28.5519 75.7929 28.7688 75.5359 29.062 75.5118Z" fill="#CA7E86"/>
<path d="M38.0838 72.6089C39.5969 97.6098 57.1304 117.088 73.9961 116.069C90.8618 115.047 100.676 93.9157 99.1637 68.9148C97.6515 43.9119 82.7518 24.4737 65.8851 25.4919C49.0193 26.515 36.5716 47.608 38.0838 72.6089Z" fill="#F2C9AD"/>
<path d="M86.0141 94.9226C85.8725 94.8122 85.6998 94.766 85.5251 94.7881C85.3514 94.8112 85.1948 94.9025 85.0873 95.0411C84.9347 95.2359 81.2256 99.8206 75.4089 99.8397C75.3948 99.8397 75.3828 99.8397 75.3687 99.8397C69.5058 99.8397 66.6472 95.2088 66.6201 95.1626C66.4293 94.8543 66.0246 94.757 65.7144 94.9357C65.4061 95.1225 65.3027 95.5301 65.4895 95.8384C65.62 96.0562 68.7628 101.153 75.3687 101.153C75.3838 101.153 75.3988 101.153 75.4119 101.153C81.9857 101.134 85.9649 96.0562 86.1326 95.8384C86.24 95.6998 86.2862 95.5261 86.2611 95.3524C86.239 95.1817 86.1506 95.0251 86.0141 94.9226Z" fill="#CA7E86"/>
<path d="M69.079 78.1935C69.0208 76.9494 68.6021 75.6953 67.7606 74.6531C66.9503 73.5978 65.5496 72.8025 64.0576 72.8176C62.4962 72.8176 61.1236 73.8056 60.4508 74.9282C59.7098 76.0377 59.4146 77.3119 59.4237 78.555C60.8284 76.5769 62.3546 74.6963 64.0706 74.7615C65.889 74.6822 67.5568 76.2667 69.079 78.1935Z" fill="#434244"/>
<path d="M59.6596 77.2607L56.1844 76.9766L59.4216 78.554L59.6596 77.2607Z" fill="#434244"/>
<path d="M92.883 77.3009C92.8238 76.0569 92.4051 74.8058 91.5657 73.7635C90.7554 72.7072 89.3527 71.909 87.8606 71.925C86.2992 71.925 84.9276 72.9151 84.2559 74.0376C83.5129 75.1471 83.2197 76.4193 83.2267 77.6614C84.6344 75.6853 86.1586 73.8007 87.8746 73.8659C89.695 73.7936 91.3608 75.3761 92.883 77.3009Z" fill="#434244"/>
<path d="M92.41 76.057L95.8159 75.304L92.8207 77.3061L92.41 76.057Z" fill="#434244"/>
<path d="M93.0236 82.0263C93.0979 82.5334 94.4092 82.7713 95.9525 82.5514C97.4988 82.3345 98.6927 81.7451 98.6234 81.2361C98.5501 80.726 97.2398 80.491 95.6945 80.7079C94.1482 80.9268 92.9533 81.5152 93.0236 82.0263Z" fill="#CA7E86"/>
<path d="M92.7544 85.0778C92.8277 84.5707 94.1391 84.3367 95.6834 84.5606C97.2297 84.7815 98.4245 85.375 98.3502 85.881C98.2769 86.3921 96.9656 86.624 95.4193 86.4011C93.875 86.1822 92.6811 85.5888 92.7544 85.0778Z" fill="#CA7E86"/>
<path d="M55.106 84.9188C55.0337 84.4107 53.7214 84.1718 52.1751 84.3917C50.6288 84.6096 49.4359 85.2 49.5052 85.707C49.5795 86.2181 50.8898 86.4541 52.4351 86.2362C53.9814 86.0193 55.1763 85.4299 55.106 84.9188Z" fill="#CA7E86"/>
<path d="M55.3751 81.8671C55.3018 82.3741 53.9904 82.6061 52.4441 82.3862C50.8978 82.1633 49.706 81.5699 49.7783 81.0618C49.8516 80.5517 51.1629 80.3198 52.7092 80.5417C54.2555 80.7616 55.4484 81.355 55.3751 81.8671Z" fill="#CA7E86"/>
<path d="M76.6719 91.0991C76.7372 91.0991 76.8005 91.095 76.8637 91.09C77.665 91.0227 79.5497 90.341 79.7535 85.5334C80.0879 77.6643 78.8197 73.3126 78.7645 73.1288C78.6821 72.8507 78.3869 72.685 78.1028 72.7734C77.8226 72.8567 77.662 73.1529 77.7453 73.4341C77.7584 73.4773 79.0175 77.8149 78.6892 85.4862C78.5516 88.7284 77.6078 89.9574 76.7723 90.0297C75.5474 90.1492 73.7018 88.0516 72.9247 84.4951C72.8624 84.206 72.5752 84.0262 72.2911 84.0875C72.0039 84.1487 71.8212 84.4339 71.8854 84.7211C72.7008 88.4663 74.6929 91.095 76.6719 91.0991Z" fill="#CA7E86"/>
<path d="M60.736 66.0473C62.6006 65.5573 64.648 65.9609 66.8279 67.2482C67.586 67.698 68.5629 67.444 69.0118 66.6859C69.4606 65.9268 69.2076 64.9468 68.4475 64.499C65.4954 62.7558 62.6117 62.2418 59.8846 62.9697C55.5911 64.1174 53.1049 69.8789 53.8731 70.3137C54.0257 70.402 57.774 66.8234 60.736 66.0473Z" fill="#563B29"/>
<path d="M91.155 65.352C89.2683 64.9604 87.2441 65.4735 85.1375 66.8762C84.4035 67.3642 83.4114 67.1624 82.9235 66.4254C82.4365 65.6924 82.6353 64.7013 83.3703 64.2154C86.2279 62.3176 89.0785 61.6509 91.8398 62.2363C96.1885 63.153 98.9759 68.7779 98.2349 69.2509C98.0842 69.3493 94.1532 65.9735 91.155 65.352Z" fill="#563B29"/>
<path d="M49.3225 53.7279C49.3225 53.7279 67.9675 61.8751 77.0967 57.4772C83.4265 54.1155 74.962 46.8138 74.962 46.8138C74.962 46.8138 98.6686 63.792 111.135 55.1317C123.602 46.4684 115.113 27.0241 90.5375 24.3854C90.5375 24.3854 74.4128 5.85588 54.7457 11.523C35.0775 17.187 30.9919 34.1502 30.9919 34.1502L21.1959 69.8717C21.1959 69.8717 33.2249 68.4258 38.1169 74.1351C38.1169 74.1351 37.1369 69.5534 41.9706 77.3512C41.9706 77.3512 52.1762 65.286 49.3225 53.7279Z" fill="#563B29"/>
<path d="M34.5885 57.3243C34.5885 57.3243 43.2307 64.7576 44.8844 75.7675C46.5392 86.7773 47.1356 103.416 58.2318 116.63C69.3291 129.842 49.8095 141.756 32.9187 139.034C16.0248 136.316 9.39481 119.669 13.7777 107.556C18.1635 95.4426 23.1951 85.1889 21.6036 72.9932C9.38076 42.7319 22.0042 37.7465 31.3995 31.7511C40.7918 25.7587 34.5885 57.3243 34.5885 57.3243Z" fill="#563B29"/>
<path d="M199.246 284.228L206.327 570.708H243.666L250.136 344.442L271.615 572.094L307.929 569.587L303.907 281.379L199.246 284.228Z" fill="#563B29"/>
<path opacity="0.4" d="M248.211 337.672C283.297 332.367 300.189 318.137 300.189 318.137H200.083L204.964 515.534L213.317 339.482C225.047 339.939 235.526 339.351 244.83 338.139L250.136 344.443L267.684 519.346L257.856 343.911L248.211 337.672Z" fill="#BBBCBF"/>
<path d="M185.811 147.277L168.194 215.946C168.194 215.946 192.289 230.073 209.134 227.668C225.979 225.261 198.386 151.299 198.386 151.299L185.811 147.277Z" fill="white"/>
<path d="M306.617 264.188L311.584 315.235C297.194 329.229 246.789 330.813 246.789 330.813C246.789 330.813 206.96 333.648 192.571 319.654L202.219 229.967L201.182 224.68L185.808 147.268C185.808 147.268 216.441 117.584 248.356 111.785C282.596 117.506 309.852 144.598 309.852 144.598L300.988 206.172L306.617 264.188Z" fill="white"/>
<path d="M228.475 116.164L228.419 121.363C228.419 121.363 215.802 172.13 216.881 187.743C217.898 202.41 212.628 319.1 212.628 319.1C203.02 316.935 190.898 312.436 181.694 308.735L185.809 195.1L184.493 145.338C184.493 145.338 221.486 116.504 228.475 116.164Z" fill="#C28000"/>
<path opacity="0.4" d="M311.583 315.235C297.194 329.229 246.788 330.813 246.788 330.813C246.788 330.813 206.96 333.648 192.57 319.654L202.219 229.967L201.182 224.68L221.926 142.828C221.926 142.828 223.04 197.639 234.756 228.212C246.939 259.996 270.404 267.527 306.616 264.188L311.583 315.235Z" fill="#BBBCBF"/>
<path d="M269.464 118.117C269.464 118.117 246.805 140.815 234.867 139.749C227.445 139.094 227.567 124.246 227.567 124.246L228.421 114.088L229.663 99.167L230.285 91.6574L247.209 95.9207L265.469 76.9685L266.143 84.693L267.104 95.7942L267.565 100.165L269.464 118.117Z" fill="#EBA58E"/>
<path d="M317.987 301.779C317.756 301.993 317.525 302.188 317.275 302.401C310.064 308.615 297.81 313.056 285.575 316.163C285.502 316.163 285.449 316.181 285.395 316.2C277.759 318.136 270.14 319.558 263.763 320.552C254.224 322.059 247.442 322.647 247.442 322.647C247.371 322.399 247.298 322.166 247.228 321.918C231.298 267.054 241.686 180.831 241.686 180.831C246.606 158.682 254.686 134.582 269.463 113.499C281.256 115.756 318.961 145.337 318.961 145.337C318.624 158.659 317.986 173.209 318.624 196.53C319.461 227.523 318.536 265.353 317.987 301.779Z" fill="#C28000"/>
<path opacity="0.4" d="M272.829 178.407C272.829 183.433 268.751 187.507 263.726 187.507C258.701 187.507 254.623 183.433 254.623 178.407C254.623 173.378 258.701 169.305 263.726 169.305C268.751 169.305 272.829 173.378 272.829 178.407Z" fill="#BBBCBF"/>
<path d="M271.432 176.561C271.432 181.589 267.356 185.666 262.329 185.666C257.302 185.666 253.228 181.589 253.228 176.561C253.228 171.535 257.302 167.461 262.329 167.461C267.356 167.462 271.432 171.535 271.432 176.561Z" fill="white"/>
<path d="M266.128 172.797C263.62 171.133 262.075 174.123 262.075 174.123C262.075 174.123 259.117 170.943 257.272 173.25C255.253 174.959 259.773 180.497 261.848 180.833C263.478 180.724 268.945 175.076 266.128 172.797Z" fill="#C28000"/>
<path opacity="0.4" d="M318.625 196.532L317.987 301.779C317.756 301.993 317.525 302.188 317.275 302.401C311.467 307.197 298.965 312.063 285.575 316.163C285.502 316.163 285.449 316.181 285.395 316.2C277.759 318.136 270.14 319.558 263.763 320.552C254.224 322.059 247.442 322.647 247.442 322.647C247.371 322.399 247.298 322.166 247.228 321.918C256.108 308.013 279.391 278.44 278.167 239.174C276.251 177.898 286.62 158.949 286.62 158.949C292.179 147.174 317.987 173.21 318.625 196.532Z" fill="#BBBCBF"/>
<path opacity="0.4" d="M267.564 100.163C251.137 113.215 235.506 118.421 228.42 114.087L229.662 99.1663L246.804 101.834L266.142 84.6924L267.103 95.7936L267.564 100.163Z" fill="#CA7E86"/>
<path d="M223.882 198.711L216.913 272.895L215.138 291.797H142.412L142.259 248.23L142.07 198.711H223.882Z" fill="#B28052"/>
<path d="M155.75 198.719L153.637 276.882L153.23 291.8H75.8469L73.6087 250.135H73.5907L71.3716 208.807C71.3556 208.664 71.3556 208.613 71.3556 208.613L70.8224 198.719H155.75Z" fill="#C9A06C"/>
<path d="M128.604 226.796H94.526V260.876H128.604V226.796Z" fill="white"/>
<path d="M111.565 239.562C111.565 227.681 83.6165 237.271 111.565 256.019C139.515 237.271 111.565 227.681 111.565 239.562Z" fill="#C28000"/>
<path d="M197.683 220.268H182.701L183.845 198.719H198.827L197.683 220.268Z" fill="#DCBF9B"/>
<path d="M193.911 291.42H178.93L180.203 267.424H195.183L193.911 291.42Z" fill="#DCBF9B"/>
<path opacity="0.2" d="M148.344 291.8H75.8458L73.6077 250.135L148.344 291.8Z" fill="#C9A06C"/>
<path d="M284.603 180.323L280.431 237.93L223.705 265.64C223.705 265.64 197.262 260.286 195.057 263.46C192.853 266.63 199.546 269.009 205.008 269.912C205.008 269.912 186.044 285.867 184.928 288.9C183.812 291.935 189.386 294.575 193.524 291.601C193.524 291.601 206.001 298.522 210.497 296.817C219.5 294.732 222.47 290.555 229.517 280.876C229.517 280.876 299.547 262.195 305.689 252.997C311.833 243.798 313.939 193.226 313.939 193.226L284.603 180.323Z" fill="#EBA58E"/>
<path opacity="0.4" d="M280.904 231.393L311.515 225.621L311.996 220.945L281.541 222.63L280.904 231.393Z" fill="#CA7E86"/>
<path d="M275.803 176.257L278.476 224.203L321.663 220.561L319.365 165.784C319.365 165.784 314.7 140.751 297.57 142.828C289.456 143.808 275.803 153.037 275.803 176.257Z" fill="white"/>
<path d="M203.954 35.3975C203.954 35.3975 193.658 49.7279 204.094 64.491C214.928 79.8245 203.954 35.3975 203.954 35.3975Z" fill="#3A3A3A"/>
<path d="M231.191 23.7863C231.192 23.7802 231.193 23.7672 231.193 23.7672C231.193 23.7672 254.884 17.8099 267.412 46.3221C267.412 46.3221 274.865 64.7582 267.191 82.6502C267.191 82.6502 250.61 106.335 231.192 113.032C217.57 117.232 206.593 92.7413 203.5 68.3097C201.587 45.8 208.525 25.6037 231.191 23.7863Z" fill="#EBA58E"/>
<path d="M229.033 93.4356C236.39 93.4135 240.798 87.7504 240.983 87.5115C241.142 87.2976 241.102 86.9954 240.891 86.8327C240.68 86.67 240.373 86.7102 240.213 86.9241C240.168 86.9803 235.898 92.4476 229.028 92.4697C222.177 92.4908 218.869 87.0928 218.837 87.0376C218.699 86.8076 218.401 86.7343 218.172 86.8689C217.942 87.0074 217.869 87.3046 218.006 87.5366C218.151 87.7776 221.637 93.4607 229.033 93.4356Z" fill="#B76C77"/>
<path d="M265.527 73.0898V84.1399C274.874 87.5006 282.537 78.286 283.936 70.7543C284.632 66.9548 283.738 63.5911 280.682 62.4354C274.219 60.0346 269.349 66.3233 267.036 70.2312C266.053 71.8659 265.527 73.0898 265.527 73.0898Z" fill="#EBA58E"/>
<path d="M277.822 68.9031C271.286 68.8157 267.544 74.6906 267.384 74.9407C267.226 75.1977 267.304 75.5341 267.558 75.6937C267.649 75.751 267.748 75.7761 267.849 75.7761C268.029 75.7761 268.206 75.6867 268.31 75.519C268.331 75.4849 269.732 73.2919 272.222 71.6814C274.474 73.1524 273.318 76.9629 273.305 77.0031C273.214 77.2892 273.371 77.5955 273.66 77.6879C273.715 77.7069 273.771 77.715 273.826 77.715C274.059 77.715 274.272 77.5684 274.346 77.3354C274.405 77.1486 275.622 73.1393 273.247 71.094C274.504 70.4514 275.97 69.9925 277.635 69.9925C277.69 69.9925 277.746 69.9955 277.804 69.9955C278.072 70.0447 278.353 69.7626 278.357 69.4603C278.363 69.1581 278.124 68.9091 277.822 68.9031Z" fill="#B76C77"/>
<path d="M249.3 77.8664C249.375 78.3855 250.72 78.6285 252.306 78.4006C253.891 78.1777 255.115 77.5702 255.042 77.0461C254.969 76.5259 253.623 76.285 252.035 76.5109C250.451 76.7378 249.227 77.3433 249.3 77.8664Z" fill="#B76C77"/>
<path d="M249.027 80.9982C249.102 80.4751 250.449 80.2371 252.033 80.4641C253.618 80.688 254.843 81.2955 254.771 81.8186C254.696 82.3387 253.35 82.5807 251.765 82.3538C250.179 82.1248 248.953 81.5204 249.027 80.9982Z" fill="#B76C77"/>
<path d="M212.353 80.9982C212.279 80.4751 210.932 80.2371 209.347 80.4641C207.763 80.688 206.535 81.2955 206.612 81.8186C206.686 82.3387 208.032 82.5807 209.615 82.3538C211.202 82.1248 212.425 81.5204 212.353 80.9982Z" fill="#B76C77"/>
<path d="M212.625 77.8664C212.553 78.3855 211.206 78.6285 209.62 78.4006C208.036 78.1777 206.809 77.5702 206.885 77.0461C206.958 76.5259 208.305 76.285 209.888 76.5109C211.475 76.7378 212.701 77.3433 212.625 77.8664Z" fill="#B76C77"/>
<path d="M241.418 70.1611C241.418 73.8612 242.291 76.8614 243.371 76.8614C244.452 76.8614 245.33 73.8612 245.33 70.1611C245.33 66.457 244.452 63.4568 243.371 63.4568C242.291 63.4568 241.418 66.457 241.418 70.1611Z" fill="#434244"/>
<path d="M216.201 70.6239C216.201 74.328 216.979 77.3343 217.938 77.3343C218.897 77.3343 219.676 74.328 219.676 70.6239C219.676 66.9178 218.897 63.9136 217.938 63.9136C216.979 63.9146 216.201 66.9178 216.201 70.6239Z" fill="#434244"/>
<path d="M227.09 85.1661C227.026 85.1661 226.959 85.1641 226.892 85.157C226.073 85.0867 224.142 84.3859 223.938 79.4538C223.603 71.3799 224.91 66.9157 224.967 66.7319C225.051 66.4438 225.357 66.2761 225.645 66.3644C225.935 66.4508 226.096 66.756 226.013 67.0442C225.999 67.0864 224.701 71.5405 225.029 79.4086C225.164 82.7331 226.132 83.9953 226.99 84.0726C228.244 84.1981 230.144 82.0473 230.943 78.4005C231.008 78.1063 231.301 77.9206 231.592 77.9838C231.886 78.0491 232.074 78.3393 232.008 78.6365C231.167 82.4721 229.121 85.1661 227.09 85.1661Z" fill="#B76C77"/>
<path d="M209.387 63.9147C209.993 63.9147 211.809 60.0409 214.325 58.833C215.908 58.0709 217.812 58.0759 219.983 58.851C220.74 59.1231 221.572 58.7255 221.844 57.9705C222.112 57.2114 221.718 56.381 220.959 56.1109C218.013 55.0616 215.347 55.1018 213.033 56.2234C209.388 57.9986 209.233 63.9147 209.387 63.9147Z" fill="#3A3A3A"/>
<path d="M251.889 64.4106C252.745 64.1235 251.365 57.8328 247.265 55.8397C244.662 54.5725 241.664 54.5294 238.343 55.7112C237.492 56.0134 237.047 56.9512 237.35 57.8017C237.654 58.6552 238.593 59.102 239.441 58.7958C241.899 57.9212 244.052 57.9182 245.835 58.7867C248.669 60.1633 251.716 64.4689 251.889 64.4106Z" fill="#3A3A3A"/>
<path d="M279.868 42.3737C282.767 27.493 271.512 18.0947 261.602 18.6119C255.28 3.12173 231.659 5.85385 217.753 11.1012L219.677 0C206.2 3.99829 205.393 19.2234 205.375 19.2444L202.461 5.92916C193.088 14.1436 198.324 28.7954 198.324 28.7954L191.097 23.6454C189.737 34.593 203.2 43.177 203.2 43.177C211.346 48.2115 253.434 41.231 254.773 42.1468C254.773 45.2544 255.555 57.1248 262.639 61.9033C262.639 61.9033 260.419 72.6701 264.19 84.2955C264.19 84.2955 266.425 69.451 270.187 65.9186C273.951 62.3852 276.693 61.9033 276.693 61.9033L279.868 42.3737Z" fill="#3A3A3A"/>
<path d="M30.033 158.965L33.2029 234.945L86.9781 268.022C86.9781 268.022 113.816 265.254 115.703 268.628C117.59 271.998 110.698 273.719 105.174 274.086C105.174 274.086 122.505 291.803 123.321 294.932C124.137 298.06 118.333 300.147 114.502 296.785C114.502 296.785 101.413 302.464 97.1033 300.332C88.3436 297.385 85.7932 292.938 79.7165 282.626C79.7165 282.626 11.8248 257.249 6.60252 247.501C2.57109 239.974 -0.452223 181.798 0.87117 157.516C1.23867 150.769 6.30632 144.03 14.4174 143.923C22.5294 143.818 30.0692 151.007 30.033 158.965Z" fill="#F2C9AD"/>
</svg>
